<svg id="icons" enable-background="new 0 0 64 64" height="512" viewBox="0 0 64 64" width="512" xmlns="http://www.w3.org/2000/svg"><g><g><path d="m41 53.008v6h-5-8-4.99v-6-6h17.99z" fill="#f5f7fa"/></g><g><path d="m23 7.508 1 1.5h-4v-3h4z" fill="#da4453"/></g><g><path d="m47 7.508 1 1.5h-4v-3h4z" fill="#da4453"/></g><g><path d="m35 7.508 1 1.5h-4v-3h4z" fill="#da4453"/></g><g><path d="m24.019 9.992c-.005 0-.013 0-.02 0h-3.999c-.553 0-1-.447-1-1v-3c0-.552.447-1 1-1h3.999c.369 0 .708.203.882.528s.154.72-.05 1.027l-.631.945.536.803c.175.18.282.426.282.697.001.553-.447 1-.999 1zm-3.019-2h1.132c-.179-.309-.179-.691 0-1h-1.132z" fill="#da4453"/></g><g><path d="m36.019 9.992c-.005 0-.012 0-.02 0h-3.999c-.553 0-1-.447-1-1v-3c0-.552.447-1 1-1h3.999c.369 0 .708.203.882.528s.154.72-.05 1.027l-.631.945.536.803c.175.18.282.426.282.697.001.553-.447 1-.999 1zm-3.019-2h1.132c-.179-.309-.179-.691 0-1h-1.132z" fill="#da4453"/></g><g><path d="m48.019 9.992c-.005 0-.012 0-.02 0h-3.999c-.553 0-1-.447-1-1v-3c0-.552.447-1 1-1h3.999c.369 0 .708.203.882.528s.154.72-.05 1.027l-.631.945.536.803c.175.18.282.426.282.697.001.553-.447 1-.999 1zm-3.019-2h1.132c-.179-.309-.179-.691 0-1h-1.132z" fill="#da4453"/></g><g><path d="m20 13.991c-.553 0-1-.448-1-1v-6.999c0-.552.447-1 1-1s1 .448 1 1v6.999c0 .552-.447 1-1 1z" fill="#ed5565"/></g><g><path d="m32 13.991c-.553 0-1-.448-1-1v-6.999c0-.552.447-1 1-1s1 .448 1 1v6.999c0 .552-.447 1-1 1z" fill="#ed5565"/></g><g><path d="m44 13.991c-.553 0-1-.448-1-1v-6.999c0-.552.447-1 1-1s1 .448 1 1v6.999c0 .552-.447 1-1 1z" fill="#ed5565"/></g><g><path d="m54.66 32.657 4.24 4.25c-2.53 2.53-6.03 4.101-9.9 4.101v-.01-5.99c2.21 0 4.21-.901 5.66-2.351z" fill="#656d78"/></g><g><path d="m56.67 29.287c-.34 1.15-.93 2.19-1.7 3.051-1.81-.86-3.83-1.33-5.97-1.33h-34c-2.13 0-4.15.47-5.96 1.33-.771-.86-1.37-1.9-1.71-3.051h.01c2.2-1.439 4.83-2.279 7.66-2.279h34c2.83 0 5.47.84 7.67 2.279z" fill="#e6e9ed"/></g><g><path d="m54.66 21.348c1.09 1.09 1.859 2.49 2.18 4.061-2.229-1.521-4.93-2.4-7.84-2.4h-34c-2.9 0-5.6.88-7.84 2.4.32-1.57 1.1-2.971 2.189-4.061 1.44-1.45 3.44-2.34 5.65-2.34v-.01h9 8 8 9v.01c2.211 0 4.211.889 5.661 2.34z" fill="#e6e9ed"/></g><g><path d="m58.9 17.107c2.529 2.53 4.1 6.03 4.1 9.9h-6c0-.551-.05-1.08-.16-1.6-.32-1.57-1.09-2.971-2.18-4.061l.01-.01z" fill="#656d78"/></g><g><path d="m56.84 25.408c.11.52.16 1.049.16 1.6 0 .789-.11 1.56-.33 2.279-2.2-1.439-4.84-2.279-7.67-2.279h-34c-2.83 0-5.46.84-7.66 2.279h-.01c-.21-.72-.33-1.49-.33-2.279 0-.551.06-1.08.16-1.6 2.24-1.521 4.939-2.4 7.84-2.4h34c2.91 0 5.61.88 7.84 2.4z" fill="#ccd1d9"/></g><g><path d="m24 13.008h8v5.99h-8z" fill="#656d78"/></g><g><path d="m1 27.008h6c0 .789.12 1.56.33 2.279.34 1.15.939 2.19 1.71 3.051.11.109.21.22.31.319l-4.25 4.25c-2.53-2.529-4.1-6.03-4.1-9.899z" fill="#656d78"/></g><g><path d="m31.99 35.008h8v6h-8z" fill="#656d78"/></g><g><path d="m9.35 32.657c-.1-.1-.199-.21-.31-.319 1.81-.86 3.83-1.33 5.96-1.33h34c2.14 0 4.16.47 5.97 1.33-.109.109-.21.22-.31.319-1.45 1.45-3.45 2.351-5.66 2.351h-9.01-8-8-8.99c-2.21 0-4.21-.901-5.65-2.351z" fill="#a0d468"/></g><g><g><path d="m15 40.998v.01c-3.87 0-7.37-1.57-9.9-4.101l4.25-4.25c1.44 1.45 3.44 2.351 5.65 2.351z" fill="#545c66"/></g><g><path d="m54.66 21.348c-1.45-1.45-3.45-2.34-5.66-2.34v-.01-5.99c3.87 0 7.37 1.57 9.9 4.1l-4.23 4.23z" fill="#545c66"/></g><g><path d="m63 27.008c0 3.869-1.57 7.37-4.1 9.899l-4.24-4.25c.1-.1.2-.21.31-.319.771-.86 1.36-1.9 1.7-3.051.22-.72.33-1.49.33-2.279z" fill="#545c66"/></g><g><path d="m23.99 35.008h8v6h-8z" fill="#545c66"/></g><g><path d="m49 40.998v.01h-9.01v-6h9.01z" fill="#545c66"/></g><g><path d="m1 27.008c0-3.87 1.57-7.37 4.1-9.9l4.25 4.24c-1.09 1.09-1.869 2.49-2.189 4.061-.101.519-.161 1.048-.161 1.599z" fill="#545c66"/></g><g><path d="m32 13.008h8v5.99h-8z" fill="#545c66"/></g><g><path d="m24 13.008v5.99h-9v-5.99h5z" fill="#545c66"/></g></g><g><path d="m49 13.008v5.99h-9v-5.99h4z" fill="#656d78"/></g><g><path d="m23.99 35.008v6h-8.99v-.01-5.99z" fill="#656d78"/></g><g><path d="m5.1 17.107c2.53-2.529 6.03-4.1 9.9-4.1v5.99.01c-2.21 0-4.21.89-5.65 2.34z" fill="#656d78"/></g><g><path d="m49 53.008c7.74 0 14-6.271 14-14v6c0 7.729-6.26 14-14 14h-8v-6z" fill="#e6e9ed"/></g><g><path d="m49 47.008c7.74 0 14-6.271 14-14v6c0 7.729-6.26 14-14 14h-8v-6z" fill="#ccd1d9"/></g><g><path d="m1 39.008c0 7.729 6.27 14 14 14h8.01v6h-8.01c-7.73 0-14-6.271-14-14z" fill="#e6e9ed"/></g><g><path d="m1 33.008c0 7.729 6.27 14 14 14h8.01v6h-8.01c-7.73 0-14-6.271-14-14z" fill="#ccd1d9"/></g><g><path d="m35 52.008c.55 0 1 .45 1 1v5c0 .55-.45 1-1 1h-6c-.55 0-1-.45-1-1v-5c0-.55.45-1 1-1z" fill="#656d78"/></g><g><path d="m1 27.008c0 3.869 1.57 7.37 4.1 9.899 2.53 2.53 6.03 4.101 9.9 4.101h8.99 8 8 9.01c3.87 0 7.37-1.57 9.9-4.101 2.529-2.529 4.1-6.03 4.1-9.899v6c0 7.729-6.26 14-14 14h-8-17.99-8.01c-7.73 0-14-6.271-14-14z" fill="#e6e9ed"/></g><path d="m28 58.008h8v1h-8z" fill="#656d78"/><path d="m31.505 52.008h1v7h-1z" fill="#545c66"/></g></svg>